<?xml version="1.0" encoding="utf-8"?>
<!-- Generator: Adobe Illustrator 28.0.0, SVG Export Plug-In . SVG Version: 6.00 Build 0)  -->
<svg version="1.1" id="Layer_1" xmlns="http://www.w3.org/2000/svg" xmlns:xlink="http://www.w3.org/1999/xlink" x="0px" y="0px"
	 viewBox="0 0 382 1098" style="enable-background:new 0 0 382 1098;" xml:space="preserve">
<style type="text/css">
	.st0{fill:none;stroke:#3E75FF;stroke-width:10;}
	.st1{fill:none;stroke:#3E75FF;stroke-width:36.2766;}
	.st2{fill:#1244FC;}
	.st3{fill:#FFFFFF;}
	.st4{fill:#0051FF;}
	.st5{fill:#FDFDFD;}
</style>
<circle class="st0" cx="193.5" cy="1011.5" r="65"/>
<path class="st1" d="M143.1,232.5c0-118.8,94.1-214.4,209.4-214.4s209.4,95.6,209.4,214.4s-94.1,214.4-209.4,214.4
	S143.1,351.3,143.1,232.5z"/>
<circle class="st2" cx="42.5" cy="1055.5" r="42.5"/>
<g>
	<g>
		<path class="st3" d="M21.8,1053.6c0-0.9,0-1.9,0.1-2.8c0.2-1.5,1-2.8,2.2-3.7c0.4-0.3,0.4-0.7,0.4-1.2c-0.3-2.3-1.5-3.9-3.3-5.2
			c-1.3-1-2.6-2.1-3.6-3.4c-1.8-2.1-1.8-5.1-0.2-7.3c0.7-1,1.8-1.4,3-1.4c2.6-0.1,5,0.6,7,2.2c1.6,1.3,3.2,2.7,4.8,4
			c0.3,0.2,0.8,0.4,1.2,0.4c2-0.3,3.9-0.6,5.8-1c1.7-0.3,3.5-0.2,5.2,0.3c1.2,0.3,2.3,0.3,3.4-0.2c1.7-0.8,3.4-1.6,5-2.4
			c2.6-1.4,5.2-2.8,8.1-3.5c3.3-0.8,6.2-0.3,8.6,2.3c1,1.1,1,2.4,0.7,3.7c-0.8,3.1-2.6,5.3-5.3,6.9c-1.5,0.9-3.2,1.7-4.8,2.5
			c-0.4,0.2-0.9,0.5-1.2,0.9c-0.4,0.4-0.6,1,0,1.5c0.3,0.2,0.4,0.7,0.4,1c0.2,3.1-0.5,6-2.6,8.4c-0.3,0.3-0.4,0.8-0.5,1.2
			c-0.9,4.8-2,9.6-3.9,14.1c-1.5,3.5-3.3,6.7-6.2,9.2c-2.2,1.8-4.6,2.9-7.5,3c-0.7,0-1.6-0.1-2.2-0.4c-2.6-1.3-4.6-3.2-5.9-5.8
			c-1.6-3.4-2.6-6.9-2.6-10.7c0-2.3-0.4-4.6-0.6-6.9c0-0.4-0.2-0.5-0.6-0.5c-0.6,0-1.2,0-1.8,0c-1.8,0-3.2-1.4-3.2-3.2
			C21.8,1055.1,21.8,1054.3,21.8,1053.6C21.8,1053.6,21.8,1053.6,21.8,1053.6z M43.3,1049.2c0,1.2,0,2.3,0,3.5c0.1,2.7,2,5,4.6,5.3
			c2.9,0.4,5.4-0.4,7.6-2.4c2.3-2.1,3.1-4.8,2.9-7.9c0-1-0.3-1.2-1.2-1.2c-3.8,0-7.6,0-11.4,0c-0.6,0-1.3,0.4-1.9,0.6
			c-0.2,0.1-0.5,0.2-0.7,0.2c-1.6,0-3.3,0-4.9,0c-0.2,0-0.4-0.2-0.7-0.2c-0.5-0.2-1-0.6-1.5-0.6c-2.6-0.1-5.2,0-7.8,0
			c-3.2,0-5.5,2.2-5.6,5.5c0,1.2,0,2.4,0,3.5c0,1.6,1,2.5,2.6,2.5c1.8,0,3.7,0,5.5,0c4.3,0,7-2.7,7-7.1c0-0.6,0-1.2,0-1.8
			C39.7,1049.2,41.4,1049.2,43.3,1049.2z M38,1081.4c1.8,0,4-0.8,5.4-2c1.1-1,2-2.1,2.2-3.7c0.3-2.5-0.9-4.6-3.3-5.8
			c-2.4-1.1-5.1-0.7-6.9,1.1c-1.7,1.6-2,3.7-2,5.9C33.4,1079.8,35.1,1081.5,38,1081.4z M55.5,1035.2c-0.5-0.4-1-0.9-1.3-0.4
			c-0.5,0.7-1.2,0.6-1.9,0.7c-0.3,0-0.6,0.2-0.8,0.4c0.2,0.2,0.4,0.4,0.5,0.6c0.2,0.3,0.6,0.7,0.5,1c-0.1,0.3-0.5,0.5-0.9,0.7
			c-0.3,0.1-0.6,0.1-0.9,0.1c0,0.1-0.1,0.2-0.1,0.3c0.3,0.2,0.7,0.5,1,0.7c0.2,0.2,0.4,0.3,0.7,0.5c0.2,0.2,0.5,0.5,0.7,0.4
			c0.3-0.1,0.6-0.3,0.7-0.6c0.1-0.3,0.1-0.6,0.1-1c0-1.1,0.1-2.1,1.7-2.1c-0.3-0.4-0.4-0.6-0.7-1C55,1035.5,55.2,1035.4,55.5,1035.2
			z"/>
		<path class="st4" d="M43.3,1049.2c-1.8,0-3.6,0-5.4,0c0,0.6,0,1.2,0,1.8c0,4.4-2.7,7.1-7,7.1c-1.8,0-3.7,0-5.5,0
			c-1.6,0-2.5-0.9-2.6-2.5c0-1.2,0-2.4,0-3.5c0.1-3.2,2.4-5.4,5.6-5.5c2.6,0,5.2,0,7.8,0c0.5,0,1,0.4,1.5,0.6
			c0.2,0.1,0.4,0.2,0.7,0.2c1.6,0,3.3,0,4.9,0c0.2,0,0.5-0.1,0.7-0.2c0.6-0.2,1.3-0.6,1.9-0.6c3.8-0.1,7.6,0,11.4,0
			c1,0,1.2,0.3,1.2,1.2c0.1,3-0.7,5.7-2.9,7.9c-2.2,2-4.7,2.7-7.6,2.4c-2.7-0.3-4.5-2.6-4.6-5.3
			C43.3,1051.6,43.3,1050.4,43.3,1049.2z"/>
		<path class="st4" d="M38,1081.4c-2.9,0-4.6-1.6-4.6-4.5c0-2.2,0.3-4.2,2-5.9c1.8-1.8,4.5-2.2,6.9-1.1c2.4,1.2,3.6,3.3,3.3,5.8
			c-0.2,1.5-1,2.7-2.2,3.7C42,1080.6,39.9,1081.4,38,1081.4z"/>
		<path class="st4" d="M55.5,1035.2c-0.3,0.2-0.5,0.3-0.8,0.4c0.2,0.4,0.4,0.6,0.7,1c-1.6,0-1.7,1-1.7,2.1c0,0.3,0,0.7-0.1,1
			c-0.1,0.3-0.4,0.5-0.7,0.6c-0.2,0-0.5-0.3-0.7-0.4c-0.2-0.2-0.4-0.3-0.7-0.5c-0.3-0.2-0.7-0.5-1-0.7c0-0.1,0.1-0.2,0.1-0.3
			c0.3,0,0.6,0,0.9-0.1c0.3-0.2,0.8-0.4,0.9-0.7c0.1-0.3-0.3-0.7-0.5-1c-0.1-0.2-0.3-0.4-0.5-0.6c0.3-0.1,0.6-0.4,0.8-0.4
			c0.7-0.1,1.4,0,1.9-0.7C54.6,1034.4,55,1034.8,55.5,1035.2z"/>
	</g>
	<path class="st5" d="M52.7,1076.8c0.7-1.6,1.3-3.1,1.9-4.6c0.1-0.2,0.2-0.2,0.4-0.3c1.2-0.3,2.4-0.5,3.6-0.8c0.8-0.2,1.1-0.4,1-1.3
		c-0.2-1.2,0.3-2,1.4-2.5c1.1-0.6,2.3-1.2,3.5-1.4c0.2,0,0.4,0,0.5,0c1.4,0.2,1.8,0.9,1.3,2.1c-0.5,1.2-1.2,2.2-2,3.2
		c-0.8,0.8-0.8,1.8-0.5,2.8c0.2,0.5,0.4,1,0.6,1.6c0.2,0.7,0.1,1.3-0.4,1.8c-0.8,0.8-1.6,1.4-2.7,1.8c-0.7,0.3-1.1,0.2-1.5-0.4
		c-0.5-0.7-0.8-1.4-1-2.2c-0.1-0.6-0.4-0.8-1-0.7c-1.6,0.3-3.2,0.6-4.7,0.8C52.9,1076.7,52.8,1076.7,52.7,1076.8z"/>
	<path class="st5" d="M20.3,1084.9c-0.6,0-0.6,0-0.8-0.6c-0.3-0.8-0.4-1.7-0.5-2.6c-0.1-0.6-0.5-1-1.1-1.2c-1-0.3-1.9-0.7-2.7-1.3
		c-0.4-0.4-0.5-0.5-0.2-1c0.6-1.4,1.7-2.5,3-3.3c0.4-0.2,0.7-0.3,1,0.1c0.4,0.4,0.9,0.7,1.3,1.1c0.4,0.5,1,0.6,1.6,0.5
		c1.5-0.2,2.9-0.4,4.4-0.7c0.3-0.1,0.4,0,0.5,0.3c0.2,1.1,0.4,2.3,0.8,3.4c0.1,0.2,0.1,0.3-0.2,0.3c-0.7,0.1-1.5,0.3-2.2,0.4
		c-0.8,0.1-1.3,0.6-1.4,1.4c-0.1,0.6-0.3,1.2-0.4,1.8c-0.1,0.3-0.3,0.6-0.6,0.8C21.8,1084.7,21.1,1084.9,20.3,1084.9z"/>
</g>
</svg>
