<?xml version="1.0" encoding="utf-8"?>
<!-- Generator: Adobe Illustrator 28.0.0, SVG Export Plug-In . SVG Version: 6.00 Build 0)  -->
<svg version="1.1" id="Layer_1" xmlns="http://www.w3.org/2000/svg" xmlns:xlink="http://www.w3.org/1999/xlink" x="0px" y="0px"
	 viewBox="0 0 170 630" style="enable-background:new 0 0 170 630;" xml:space="preserve">
<style type="text/css">
	.st0{fill:none;stroke:#3E75FF;stroke-width:11;}
	.st1{fill:#1244FC;}
	.st2{fill:#FFFFFF;}
	.st3{fill:#0051FF;}
	.st4{fill:#FDFDFD;}
</style>
<path class="st0" d="M-14.5,70.5c0-36.3,27.2-65,60-65s60,28.7,60,65s-27.2,65-60,65S-14.5,106.8-14.5,70.5z"/>
<circle class="st1" cx="127.5" cy="587.5" r="42.5"/>
<g>
	<g>
		<path class="st2" d="M108,584.8c0-0.9,0-1.7,0.1-2.6c0.2-1.4,0.9-2.6,2.1-3.5c0.4-0.3,0.4-0.6,0.4-1.1c-0.3-2.1-1.4-3.6-3.1-4.9
			c-1.2-0.9-2.4-2-3.4-3.2c-1.7-1.9-1.7-4.7-0.2-6.8c0.7-1,1.7-1.3,2.8-1.3c2.4-0.1,4.7,0.6,6.6,2.1c1.5,1.2,3,2.5,4.5,3.7
			c0.3,0.2,0.7,0.4,1.1,0.4c1.8-0.3,3.7-0.6,5.5-0.9c1.6-0.3,3.3-0.2,4.9,0.2c1.1,0.3,2.2,0.3,3.2-0.2c1.6-0.7,3.2-1.5,4.7-2.3
			c2.5-1.3,4.9-2.6,7.6-3.3c3.1-0.8,5.8-0.3,8.1,2.2c1,1.1,1,2.3,0.7,3.5c-0.7,2.9-2.4,5-4.9,6.5c-1.5,0.8-3,1.6-4.5,2.4
			c-0.4,0.2-0.8,0.5-1.1,0.9c-0.4,0.4-0.6,0.9,0,1.4c0.2,0.2,0.4,0.6,0.4,1c0.2,2.9-0.4,5.6-2.5,7.9c-0.2,0.3-0.4,0.7-0.4,1.1
			c-0.9,4.5-1.9,9-3.7,13.2c-1.4,3.3-3.1,6.3-5.8,8.6c-2,1.7-4.4,2.7-7,2.9c-0.7,0-1.5-0.1-2.1-0.4c-2.4-1.2-4.3-3-5.5-5.5
			c-1.5-3.2-2.4-6.4-2.4-10c0-2.2-0.4-4.3-0.5-6.5c0-0.4-0.2-0.5-0.5-0.5c-0.6,0-1.1,0-1.7,0c-1.7,0-3-1.3-3-3
			C108.1,586.2,108.1,585.5,108,584.8C108.1,584.8,108.1,584.8,108,584.8z M128.2,580.7c0,1.1,0,2.2,0,3.3c0.1,2.6,1.8,4.7,4.3,5
			c2.7,0.3,5.1-0.3,7.1-2.2c2.1-2,2.9-4.5,2.8-7.4c0-0.9-0.3-1.2-1.2-1.2c-3.6,0-7.1,0-10.7,0c-0.6,0-1.2,0.4-1.8,0.6
			c-0.2,0.1-0.4,0.2-0.7,0.2c-1.5,0-3.1,0-4.6,0c-0.2,0-0.4-0.1-0.6-0.2c-0.5-0.2-0.9-0.6-1.4-0.6c-2.5-0.1-4.9,0-7.4,0
			c-3,0-5.2,2.1-5.3,5.1c0,1.1,0,2.2,0,3.3c0,1.5,0.9,2.4,2.4,2.4c1.7,0,3.5,0,5.2,0c4.1,0,6.6-2.5,6.6-6.6c0-0.6,0-1.1,0-1.7
			C124.9,580.7,126.5,580.7,128.2,580.7z M123.3,610.9c1.7,0,3.7-0.8,5-1.9c1.1-0.9,1.9-2,2-3.5c0.3-2.4-0.9-4.3-3.1-5.4
			c-2.2-1.1-4.7-0.7-6.5,1c-1.6,1.5-1.9,3.5-1.8,5.5C119,609.4,120.6,610.9,123.3,610.9z M139.7,567.5c-0.5-0.4-0.9-0.8-1.3-0.4
			c-0.5,0.7-1.1,0.6-1.8,0.6c-0.3,0-0.5,0.2-0.8,0.4c0.2,0.2,0.3,0.4,0.5,0.6c0.2,0.3,0.5,0.7,0.5,0.9c0,0.3-0.5,0.5-0.8,0.6
			c-0.2,0.1-0.5,0.1-0.8,0.1c0,0.1-0.1,0.2-0.1,0.3c0.3,0.2,0.6,0.5,0.9,0.7c0.2,0.2,0.4,0.3,0.6,0.5c0.2,0.2,0.5,0.4,0.6,0.4
			c0.3,0,0.5-0.3,0.7-0.5c0.1-0.3,0.1-0.6,0.1-0.9c0-1,0.1-2,1.6-2c-0.2-0.4-0.4-0.6-0.6-0.9C139.2,567.8,139.5,567.7,139.7,567.5z"
			/>
		<path class="st3" d="M128.2,580.7c-1.7,0-3.4,0-5.1,0c0,0.6,0,1.1,0,1.7c0,4.1-2.5,6.6-6.6,6.6c-1.7,0-3.5,0-5.2,0
			c-1.5,0-2.4-0.9-2.4-2.4c0-1.1,0-2.2,0-3.3c0.1-3,2.3-5.1,5.3-5.1c2.5,0,4.9,0,7.4,0c0.5,0,0.9,0.4,1.4,0.6
			c0.2,0.1,0.4,0.2,0.6,0.2c1.5,0,3.1,0,4.6,0c0.2,0,0.4-0.1,0.7-0.2c0.6-0.2,1.2-0.6,1.8-0.6c3.6-0.1,7.1,0,10.7,0
			c0.9,0,1.1,0.3,1.2,1.2c0.1,2.9-0.6,5.4-2.8,7.4c-2,1.9-4.4,2.6-7.1,2.2c-2.5-0.3-4.3-2.4-4.3-5
			C128.2,582.9,128.2,581.8,128.2,580.7z"/>
		<path class="st3" d="M123.3,610.9c-2.8,0-4.3-1.5-4.4-4.2c0-2,0.3-4,1.8-5.5c1.7-1.7,4.3-2.1,6.5-1c2.2,1.1,3.4,3.1,3.1,5.4
			c-0.2,1.4-1,2.5-2,3.5C127,610.1,125,610.9,123.3,610.9z"/>
		<path class="st3" d="M139.7,567.5c-0.3,0.2-0.5,0.3-0.7,0.4c0.2,0.3,0.4,0.6,0.6,0.9c-1.5,0-1.6,1-1.6,2c0,0.3,0,0.7-0.1,0.9
			c-0.1,0.2-0.4,0.5-0.7,0.5c-0.2,0-0.4-0.3-0.6-0.4c-0.2-0.2-0.4-0.3-0.6-0.5c-0.3-0.2-0.6-0.5-0.9-0.7c0-0.1,0.1-0.2,0.1-0.3
			c0.3,0,0.6,0,0.8-0.1c0.3-0.1,0.8-0.4,0.8-0.6c0.1-0.3-0.3-0.6-0.5-0.9c-0.1-0.2-0.3-0.4-0.5-0.6c0.3-0.1,0.5-0.3,0.8-0.4
			c0.7-0.1,1.3,0,1.8-0.6C138.8,566.7,139.2,567.1,139.7,567.5z"/>
	</g>
	<path class="st4" d="M137,606.5c0.7-1.5,1.3-2.9,1.8-4.3c0.1-0.2,0.2-0.2,0.4-0.2c1.1-0.2,2.2-0.5,3.4-0.7c0.8-0.2,1-0.4,0.9-1.2
		c-0.2-1.2,0.3-1.9,1.3-2.4c1.1-0.5,2.1-1.1,3.3-1.3c0.2,0,0.3,0,0.5,0c1.3,0.2,1.7,0.8,1.2,2c-0.5,1.1-1.1,2.1-1.9,3
		c-0.7,0.8-0.8,1.7-0.4,2.7c0.2,0.5,0.4,1,0.6,1.5c0.2,0.6,0.1,1.2-0.4,1.7c-0.7,0.7-1.5,1.3-2.5,1.7c-0.7,0.3-1,0.2-1.4-0.4
		c-0.5-0.6-0.8-1.3-0.9-2.1c-0.1-0.6-0.4-0.8-1-0.7c-1.5,0.3-3,0.5-4.4,0.8C137.3,606.5,137.2,606.5,137,606.5z"/>
	<path class="st4" d="M106.6,614.1c-0.5,0-0.6,0-0.8-0.6c-0.2-0.8-0.4-1.6-0.5-2.4c-0.1-0.6-0.5-1-1-1.1c-0.9-0.3-1.8-0.6-2.6-1.2
		c-0.4-0.3-0.5-0.4-0.2-0.9c0.6-1.3,1.6-2.3,2.8-3.1c0.3-0.2,0.7-0.2,1,0.1c0.4,0.4,0.8,0.6,1.2,1c0.4,0.4,0.9,0.6,1.5,0.5
		c1.4-0.2,2.8-0.4,4.1-0.7c0.3-0.1,0.4,0,0.5,0.3c0.2,1.1,0.4,2.1,0.7,3.2c0.1,0.2,0.1,0.3-0.2,0.3c-0.7,0.1-1.4,0.2-2.1,0.4
		c-0.8,0.1-1.2,0.6-1.4,1.3c-0.1,0.6-0.2,1.1-0.4,1.7c-0.1,0.3-0.3,0.6-0.6,0.7C108.1,613.9,107.4,614.1,106.6,614.1z"/>
</g>
</svg>
