<?xml version="1.0" encoding="utf-8"?>
<!-- Generator: Adobe Illustrator 28.0.0, SVG Export Plug-In . SVG Version: 6.00 Build 0)  -->
<svg version="1.1" id="Layer_1" xmlns="http://www.w3.org/2000/svg" xmlns:xlink="http://www.w3.org/1999/xlink" x="0px" y="0px"
	 viewBox="0 0 46 66" style="enable-background:new 0 0 46 66;" xml:space="preserve">
<style type="text/css">
	.st0{fill:#121829;}
	.st1{fill:#FFFFFF;}
</style>
<g>
	<path class="st0" d="M33.8,42.7c0,0.2,0,0.3,0,0.5c-0.1,1,0,2-0.2,3C33.4,47,32.9,47.7,32,48c-0.2,0-0.3,0.1-0.4,0.3
		c-0.3,0.5-0.8,0.8-1.2,1.2c-0.5,0.2-1.1,0.4-1.7,0.4c-0.5,0-1.1,0.1-1.6,0.2c-0.1,0-0.2,0-0.2,0.2c0,0.1,0.1,0.1,0.2,0.1
		c1.4,0.1,2.7,0.7,3.8,1.5c0.1,0.1,0.1,0.1,0.2,0.2c0.1,0.1,0.2,0.2,0.3,0.3c2.2,2.2,2.7,4.9,2.9,7.8c0,0.4,0,0.9,0,1.3
		c0,0.7-0.4,1.1-1,1.1c-0.4,0-0.5,0.1-0.7,0.5c-0.3,0.8-1,1.2-1.8,1.2c-1.4,0.1-2.9,0.1-4.3,0.1c-0.8,0-1.7-0.1-2.5,0.2
		c0,0-0.1-0.1-0.1-0.1c-1.5-0.1-2.9,0-4.4,0c-2.1,0-4.3,0.1-6.4,0.1c-1,0-1.6-0.5-1.9-1.6c-0.5-1.6-0.4-3.2-0.3-4.8
		c0.3-2.1,1.3-3.8,2.7-5.3c0.1-0.1,0.1-0.1,0.2-0.2c0,0,0.1-0.1,0.1-0.1c0,0,0,0,0,0c0,0,0.1-0.1,0.1-0.1c0.6-0.4,1.3-0.8,1.9-1.3
		c0.7-0.3,1.4-0.6,2.2-0.9c-0.6,0-0.9,0-1.3,0c-1.1,0-2.3,0-3.4-0.4c-0.2-0.2-0.5-0.4-0.7-0.5c0-0.1-0.1-0.1-0.1-0.2
		c-0.1-0.1-0.1-0.2-0.2-0.3c-0.1-0.1-0.1-0.3-0.2-0.4c0-0.1-0.1-0.1-0.1-0.1c-0.4-1-0.4-2-0.5-3c-0.3-2.6-0.3-5.2-0.4-7.9
		c0-2.6,0.9-3.6,3-4.1c-0.6-0.2-1.1-0.4-1.6-0.9c-0.4-0.4-0.5-0.9-0.9-1.3c0-0.3,0-0.6-0.1-0.9c-0.1-2.9,0.4-5.8,0.8-8.7
		c0.1-0.4,0.3-0.8,0.5-1.1c0.4-0.5,1-0.7,1.6-0.8c1.3-0.1,2.5,0.2,3.7,0.4c0.3,0,0.6,0,0.8-0.4c-1.1,0.1-2.2-0.3-3.2-0.2
		c-0.1,0-0.2,0-0.3,0c-0.1-0.2-0.2-0.1-0.3-0.1c-0.3-0.1-0.5,0-0.8,0c-0.4-0.2-0.9-0.2-1.2-0.5c-1.1-0.7-1.4-1.7-1.6-2.9
		c-0.4-3-0.6-6.1-0.4-9.2c0.1-1.4,1-2.2,2.4-2.3c0.9,0,1.9-0.1,2.8,0.3c0.4,0.2,0.8,0,1.2,0.1c0.3,0,0.6,0,0.7,0.2
		c0.3,0.5,0.6,0.3,1,0.1c0.9-0.3,1.8-0.3,2.7-0.3c2-0.1,3.9-0.5,5.9-0.7c1-0.1,2-0.2,3,0.2c0.3,0.1,0.6,0,0.9,0
		c1.1,0,1.6,0.4,1.9,1.4c0.5,1.6,0.5,3.3,0.6,5c0.1,1.6,0.1,3.3,0,4.9c-0.1,0.8-0.3,1-1.1,1.2c-0.2,0-0.4,0-0.5,0.3
		c-0.2,0.6-0.6,1-1.2,1.3c-0.2,0-0.4,0.1-0.6,0.1c-0.1,0-0.3,0-0.4,0c-0.5,0-1.1,0-1.6,0c-0.1-0.1-0.3,0.1-0.4,0
		c-0.8-0.4-1.6-0.7-1.8-1.7c-0.1-0.4-0.1-0.8-0.2-1.2c-0.1-1.6-0.2-3.2-0.2-4.7c0-0.4-0.2-0.3-0.5-0.3c-0.3,0-0.4,0.1-0.3,0.4
		c0,0.2,0,0.4,0.1,0.6c0.2,1.4,0.4,2.8,0.4,4.3c-0.1,0.7-0.2,1.5-0.9,1.9c-0.2,0.1-0.5,0.1-0.7,0.2c0,0,0,0.1-0.1,0.1
		c0,0,0,0.1-0.1,0.1c0,0,0,0.1,0,0.1c-0.2,0.3-0.4,0.5-0.8,1c0.6-0.1,1-0.2,1.5-0.3c0,0,0.1,0,0.1,0c1.1,0,2.1,0,3.2,0
		c0.3,0.1,0.6,0.2,0.9,0.2c0.7,0.3,1.4,0,2.1,0.2c1.3,0.8,1.6,2.1,1.8,3.5c0.3,2,0.1,4.1,0.2,6.2c0.1,0.7,0,1.4-0.5,2
		c-0.1,0.1-0.2,0.3-0.4,0.4c-1,0.2-1.4,1.3-2.3,1.8c0.3,0.2,0.6,0.3,1,0.3c0.3,0,0.6,0,0.9,0c1.1,0.1,1.7,0.7,1.7,1.9
		c0.1,1.7,0.2,3.5,0.3,5.2c0,0,0,0.1,0,0.1c0,0.2,0,0.3,0,0.5c0,0.2-0.1,0.5,0,0.7c0,0,0,0,0,0l0,0c0,0.2,0,0.3,0,0.5
		C33.8,42.5,33.8,42.6,33.8,42.7z M20.5,34.1c-1.7,0.1-3.9-0.1-6,0.1c-1.2,0.2-1.9,0.7-2.2,1.9c-0.1,0.4-0.1,0.8-0.1,1.2
		c0,3.1,0.1,6.3,0.5,9.4c0.2,1.7,0.9,2.3,2.3,2.5c1.3,0.1,2.6,0,3.9,0c3.1-0.1,6.2,0,9.3-0.2c1.9-0.2,3-1.1,3-3
		c0-2.3,0.1-4.6-0.1-6.9c-0.1-1-0.1-2.1-0.2-3.1c-0.1-1-0.7-1.5-1.7-1.6c-1.2-0.1-2.4-0.1-3.5-0.1C24.2,34,22.5,34.1,20.5,34.1z
		 M31.8,13.4c0.1-1.4,0-3-0.2-4.5C31.6,8,31.4,7,31.2,6.1c-0.2-0.8-0.7-1.2-1.5-1.3c-0.5,0-1,0-1.4,0c-1.6,0.2-3.1,0.4-4.7,0.6
		c-1.2,0.2-2.3,0.1-3.5,0.3c-0.9,0.1-1.3,0.5-1.3,1.4c0,1.3,0.2,2.7,0.3,4c0.1,1,0.2,2,0.2,3c0,0.3-0.1,0.4-0.4,0.3
		c-0.5-0.1-0.9-0.1-1.4-0.2c-1-0.1-1-0.1-1-1c0-0.1,0-0.2,0-0.3c0-1.7-0.4-3.5-0.1-5.2c0.1-0.5,0.1-1-0.1-1.5
		c-0.2-0.7-0.5-0.9-1.2-1c-0.4,0-0.8,0-1.1,0c-1.2,0-1.8,0.5-1.8,1.8c0,1.5,0,3.1,0,4.6c0,1.5,0.2,3,0.5,4.5
		c0.2,1.2,0.8,1.8,2.1,1.9c1.2,0.2,2.4,0.3,3.6,0.4c1,0.1,1.9,0.2,2.9,0.2c1.5-0.1,2.2-0.7,2.2-2.2c0-0.7,0-1.4-0.1-2.2
		c-0.2-1.3-0.4-2.6-0.4-3.9c0-0.4,0.2-0.6,0.6-0.6c1.1-0.1,2.1-0.1,3.2-0.2c0.3,0,0.4,0,0.5,0.4c0,0.5,0.1,1,0.1,1.5
		c0.1,1.5,0.2,3,0.2,4.5c0.1,1,0.4,1.4,1.2,1.5c0.7,0.1,1.4,0.1,2.2,0c0.7-0.1,1-0.5,1-1.2C31.8,15.4,31.8,14.4,31.8,13.4z
		 M31.8,60.7c0-1.2-0.1-2.5-0.5-3.8c-0.7-2.5-2.1-4.5-4.6-5.5c-3.1-1.2-6.2-1.1-9.3,0.1c-4.8,1.9-6.5,6.3-5.3,11.1
		c0.2,0.7,0.4,0.9,1.2,0.8c2.2,0,4.3,0,6.5-0.1c2.5-0.1,5-0.1,7.5-0.1c1.2,0,2.3-0.1,3.5-0.1c0.6,0,1-0.4,1-1.1
		C31.8,61.6,31.8,61.2,31.8,60.7z M24.6,32.6c1.4,0,2.5,0,3.6,0c0,0,0.1,0,0.1,0c1.1,0,1.9-0.6,2.2-1.5c0.1-0.5,0.3-1,0.2-1.5
		c-0.2-1.3-0.1-2.6-0.1-3.8c0-1.1-0.1-2.2-0.4-3.2c-0.4-1.7-1.3-2.7-3.2-2.6c-1.6,0-3.2,0.3-4.8,0.2c-0.6,0-1.2,0-1.8,0.1
		c-0.8,0.1-1.1,0.5-1.2,1.2c0,0.4,0,0.7,0,1.1c0,1,0,2.1,0,3.1c0,1,0.4,1.5,1.4,1.6c0.7,0.1,1.3,0.1,2,0.1c0.7,0,0.9-0.2,0.9-0.9
		c0-0.6,0-1.3,0-1.9c0-0.3,0.1-0.4,0.4-0.4c0.6,0,1.2,0,1.8,0c0.3,0,0.4,0.1,0.4,0.4c0,1,0.1,1.9,0.2,2.9c0,0.9,0,0.9-0.9,0.9
		c-2.6,0-5.3-0.1-7.9-0.1c-0.3,0-0.4-0.1-0.3-0.4c0.1-0.6,0.2-1.2,0.3-1.8c0.2-1.4,0.5-2.9,0.6-4.3c0-0.5-0.2-0.7-0.6-0.8
		c-0.8-0.3-1.7-0.3-2.5-0.3c-1.2-0.1-1.5,0.6-1.6,1.4c-0.1,0.7-0.2,1.4-0.3,2c-0.3,2-0.5,4.1-0.4,6.1c0.1,1.3,0.8,2.1,2.1,2.2
		c0.8,0.1,1.6,0.2,2.4,0.2C19.9,32.5,22.4,32.7,24.6,32.6z M24.8,27.3c0.3,0,0.6,0.1,0.6-0.4c0-0.4-0.2-0.4-0.5-0.4
		c-0.6-0.1-0.5,0.4-0.5,0.6C24.4,27.5,24.7,27.2,24.8,27.3z"/>
	<path class="st1" d="M20.5,34.1c2,0,3.6,0,5.3,0c1.2,0,2.4,0.1,3.5,0.1c1,0.1,1.5,0.6,1.7,1.6c0.1,1,0.1,2.1,0.2,3.1
		c0.2,2.3,0.1,4.6,0.1,6.9c0,1.9-1.1,2.9-3,3c-3.1,0.2-6.2,0.1-9.3,0.2c-1.3,0-2.6,0.1-3.9,0c-1.5-0.1-2.1-0.7-2.3-2.5
		c-0.4-3.1-0.5-6.3-0.5-9.4c0-0.4,0-0.8,0.1-1.2c0.3-1.2,1-1.7,2.2-1.9C16.7,33.9,18.8,34.1,20.5,34.1z M26.9,41.5
		c0-0.7,0-1.4,0-2.1c0-0.4-0.1-0.5-0.5-0.5c-3.2,0-6.5,0.1-9.7,0.1c-0.4,0-0.5,0.1-0.5,0.5c0.2,1.4,0.1,2.9,0.3,4.3
		c0.1,0.4,0.2,0.5,0.6,0.5c1.8,0,3.5,0,5.3,0c1.3,0,2.6-0.1,3.9-0.2c0.4,0,0.6-0.1,0.6-0.6C26.8,42.8,26.9,42.1,26.9,41.5z"/>
	<path class="st1" d="M31.8,13.4c0,1,0,1.9,0,2.9c0,0.7-0.3,1.1-1,1.2c-0.7,0.1-1.4,0.1-2.2,0c-0.8-0.1-1.1-0.5-1.2-1.5
		c-0.1-1.5-0.2-3-0.2-4.5c0-0.5-0.1-1-0.1-1.5c0-0.3-0.1-0.4-0.5-0.4c-1.1,0.1-2.1,0.2-3.2,0.2c-0.4,0-0.6,0.1-0.6,0.6
		c0,1.3,0.2,2.6,0.4,3.9c0.1,0.7,0.1,1.4,0.1,2.2c0,1.5-0.6,2.2-2.2,2.2c-1,0-1.9-0.1-2.9-0.2c-1.2-0.1-2.4-0.3-3.6-0.4
		c-1.2-0.2-1.8-0.7-2.1-1.9c-0.3-1.5-0.4-3-0.5-4.5c0-1.5,0-3.1,0-4.6c0-1.3,0.5-1.8,1.8-1.8c0.4,0,0.8,0,1.1,0c0.7,0,1,0.2,1.2,1
		c0.2,0.5,0.2,1,0.1,1.5c-0.3,1.8,0,3.5,0.1,5.2c0,0.1,0,0.2,0,0.3c0,0.9,0,0.9,1,1c0.5,0,1,0.1,1.4,0.2c0.3,0.1,0.4,0,0.4-0.3
		c0-1-0.1-2-0.2-3c-0.1-1.3-0.3-2.6-0.3-4c0-0.9,0.4-1.3,1.3-1.4c1.2-0.2,2.3-0.1,3.5-0.3c1.6-0.2,3.1-0.4,4.7-0.6
		c0.5-0.1,1-0.1,1.4,0c0.8,0.1,1.3,0.5,1.5,1.3C31.4,7,31.6,8,31.6,8.9C31.8,10.4,31.9,12,31.8,13.4z"/>
	<path class="st1" d="M31.8,60.7c0,0.5,0,0.9,0,1.3c0,0.7-0.4,1-1,1.1c-1.2,0.1-2.3,0.1-3.5,0.1c-2.5,0-5,0-7.5,0.1
		c-2.2,0.1-4.3,0.1-6.5,0.1c-0.7,0-1-0.2-1.2-0.8c-1.2-4.8,0.5-9.2,5.3-11.1c3.1-1.2,6.2-1.3,9.3-0.1c2.5,1,3.9,3,4.6,5.5
		C31.7,58.2,31.9,59.5,31.8,60.7z M21.6,59.2C21.6,59.2,21.6,59.2,21.6,59.2c1.5,0,3,0,4.5,0c0.4,0,0.5-0.1,0.5-0.5
		c0-1.2-0.5-2-1.5-2.6c-1.9-1.4-5.3-1.3-7.2,0c-0.9,0.6-1.4,1.4-1.4,2.6c0,0.4,0.1,0.5,0.5,0.5C18.5,59.1,20.1,59.2,21.6,59.2z"/>
	<path class="st1" d="M24.6,32.6c-2.2,0-4.7-0.2-7.3-0.2c-0.8,0-1.6-0.1-2.4-0.2c-1.3-0.1-2-0.9-2.1-2.2c-0.1-2,0.1-4.1,0.4-6.1
		c0.1-0.7,0.2-1.4,0.3-2c0.1-0.9,0.4-1.5,1.6-1.4c0.9,0,1.7,0.1,2.5,0.3c0.4,0.1,0.6,0.4,0.6,0.8c-0.1,1.4-0.4,2.9-0.6,4.3
		c-0.1,0.6-0.2,1.2-0.3,1.8c0,0.3,0,0.4,0.3,0.4c2.6,0,5.3,0.1,7.9,0.1c0.9,0,0.9,0,0.9-0.9c0-1-0.1-1.9-0.2-2.9
		c0-0.3-0.1-0.4-0.4-0.4c-0.6,0-1.2,0-1.8,0c-0.3,0-0.4,0.1-0.4,0.4c0,0.6,0,1.3,0,1.9c0,0.7-0.2,0.9-0.9,0.9c-0.7,0-1.3,0-2-0.1
		c-1-0.1-1.4-0.5-1.4-1.6c0-1,0-2.1,0-3.1c0-0.4,0-0.7,0-1.1c0-0.8,0.4-1.1,1.2-1.2c0.6-0.1,1.2-0.1,1.8-0.1
		c1.6,0.1,3.2-0.2,4.8-0.2c1.9,0,2.8,0.9,3.2,2.6c0.3,1.1,0.3,2.1,0.4,3.2c0,1.3-0.1,2.6,0.1,3.8c0.1,0.5-0.1,1-0.2,1.5
		c-0.3,1-1.1,1.5-2.2,1.5c0,0-0.1,0-0.1,0C27.1,32.6,26,32.6,24.6,32.6z"/>
	<path class="st0" d="M26.9,41.5c0,0.6,0,1.3,0,1.9c0,0.5-0.2,0.6-0.6,0.6c-1.3,0.1-2.6,0.2-3.9,0.2c-1.8,0-3.5,0-5.3,0
		c-0.4,0-0.5-0.1-0.6-0.5c-0.2-1.4-0.1-2.9-0.3-4.3c-0.1-0.4,0.1-0.5,0.5-0.5c3.2-0.1,6.5-0.2,9.7-0.1c0.4,0,0.5,0.1,0.5,0.5
		C26.9,40.1,26.9,40.8,26.9,41.5z M22.2,43.3c0.9-0.1,2.2-0.1,3.4-0.2c0.3,0,0.4-0.1,0.4-0.4c0-0.9,0-1.8,0-2.6
		c0-0.2-0.1-0.3-0.3-0.3c-2.2,0-4.3,0-6.5,0.1c-0.2,0-0.4,0.1-0.3,0.3c0.1,0.9,0,1.8,0.2,2.7c0.1,0.3,0.2,0.4,0.5,0.4
		C20.2,43.3,21,43.3,22.2,43.3z"/>
	<path class="st0" d="M21.6,59.2c-1.5,0-3,0-4.5,0c-0.4,0-0.5-0.2-0.5-0.5c0-1.1,0.5-1.9,1.4-2.6c1.9-1.4,5.3-1.4,7.2,0
		c0.9,0.6,1.4,1.5,1.5,2.6c0,0.4-0.1,0.5-0.5,0.5C24.6,59.2,23.1,59.2,21.6,59.2C21.6,59.2,21.6,59.2,21.6,59.2z M22.3,58.2
		C22.3,58.2,22.3,58.2,22.3,58.2c1,0,1.9,0,2.9,0c0.3,0,0.4-0.1,0.3-0.4c-0.2-0.4-0.5-0.8-0.9-1.1c-1.3-0.8-2.7-0.9-4.2-0.7
		c-1,0.2-1.4,0.6-1.4,1.7c0,0.3,0.1,0.4,0.4,0.4C20.3,58.2,21.3,58.2,22.3,58.2z"/>
</g>
</svg>
