<?xml version="1.0" encoding="utf-8"?>
<!-- Generator: Adobe Illustrator 28.0.0, SVG Export Plug-In . SVG Version: 6.00 Build 0)  -->
<svg version="1.1" id="Layer_1" xmlns="http://www.w3.org/2000/svg" xmlns:xlink="http://www.w3.org/1999/xlink" x="0px" y="0px"
	 viewBox="0 0 253 595" style="enable-background:new 0 0 253 595;" xml:space="preserve">
<style type="text/css">
	.st0{fill:#004BA5;}
	.st1{fill:none;stroke:#3B78FF;stroke-width:36.2766;}
	.st2{fill:#FFFFFF;}
	.st3{fill:#0051FF;}
	.st4{fill:#FDFDFD;}
</style>
<circle class="st0" cx="167.5" cy="509.5" r="85.5"/>
<circle class="st1" cx="-113.5" cy="232.5" r="214.4"/>
<g>
	<g>
		<path class="st2" d="M122.2,503.1c0.1-2,0-4.1,0.3-6c0.5-3.2,2.1-6,4.8-8c1-0.7,1-1.4,0.8-2.5c-0.6-5-3.3-8.4-7.2-11.4
			c-2.9-2.2-5.6-4.7-8-7.4c-3.9-4.5-3.9-11-0.5-15.9c1.6-2.3,4-3,6.6-3.1c5.7-0.2,10.9,1.3,15.3,4.9c3.5,2.8,6.9,5.9,10.4,8.7
			c0.7,0.5,1.7,0.9,2.5,0.8c4.3-0.6,8.5-1.4,12.7-2.1c3.8-0.7,7.6-0.5,11.3,0.6c2.5,0.7,5,0.7,7.4-0.4c3.7-1.7,7.4-3.4,11-5.3
			c5.7-3,11.3-6.1,17.6-7.7c7.2-1.8,13.6-0.7,18.8,5.1c2.3,2.5,2.2,5.3,1.5,8.2c-1.6,6.7-5.6,11.6-11.5,15c-3.4,2-6.9,3.6-10.4,5.5
			c-1,0.5-1.9,1.2-2.6,2c-0.8,1-1.4,2.1,0.1,3.3c0.6,0.4,0.9,1.5,0.9,2.3c0.5,6.9-1,13.1-5.8,18.4c-0.6,0.6-0.9,1.7-1,2.6
			c-2,10.5-4.4,20.9-8.5,30.8c-3.2,7.6-7.2,14.7-13.6,20.1c-4.7,4-10.2,6.3-16.3,6.6c-1.6,0.1-3.4-0.2-4.8-1
			c-5.6-2.8-10-6.9-12.8-12.8c-3.5-7.4-5.6-15-5.6-23.3c0-5-0.8-10-1.2-15c-0.1-0.9-0.4-1.2-1.3-1.1c-1.3,0-2.6,0-3.9,0
			c-3.9-0.1-6.9-3-7.1-6.9c-0.1-1.6,0-3.2,0-4.9C122.3,503.1,122.3,503.1,122.2,503.1z M169.2,493.6c0,2.7-0.1,5.1,0,7.6
			c0.2,6,4.3,10.9,10.1,11.6c6.2,0.8,11.9-0.8,16.6-5.1c5-4.6,6.7-10.5,6.4-17.2c-0.1-2.1-0.6-2.7-2.7-2.7c-8.3,0-16.6-0.1-24.9,0.1
			c-1.4,0-2.8,0.9-4.2,1.4c-0.5,0.2-1,0.5-1.5,0.5c-3.6,0-7.2,0-10.7,0c-0.5,0-1-0.3-1.4-0.5c-1.1-0.5-2.1-1.3-3.2-1.3
			c-5.7-0.1-11.4-0.1-17.1-0.1c-7.1,0-12.1,4.9-12.3,11.9c-0.1,2.6-0.1,5.2,0,7.7c0.1,3.4,2.2,5.5,5.7,5.5c4,0,8.1,0,12.1,0
			c9.5,0,15.4-5.9,15.4-15.4c0-1.3,0-2.6,0-4C161.4,493.6,165.2,493.6,169.2,493.6z M157.7,563.9c4,0,8.7-1.8,11.7-4.4
			c2.5-2.1,4.3-4.7,4.7-8c0.6-5.5-2-10.1-7.2-12.6c-5.2-2.5-11-1.5-15.1,2.4c-3.7,3.5-4.3,8.1-4.3,12.8
			C147.6,560.5,151.3,564,157.7,563.9z M196,463c-1.1-1-2.1-1.9-2.9-0.8c-1.2,1.5-2.7,1.3-4.2,1.5c-0.6,0.1-1.2,0.5-1.9,0.8
			c0.4,0.5,0.8,0.9,1.1,1.4c0.5,0.7,1.3,1.6,1.1,2.2c-0.1,0.6-1.2,1.1-1.9,1.4c-0.6,0.3-1.2,0.2-1.9,0.3c-0.1,0.2-0.2,0.4-0.3,0.6
			c0.7,0.5,1.4,1.1,2.2,1.6c0.5,0.4,1,0.7,1.5,1.1c0.5,0.4,1.1,1,1.5,0.9c0.6-0.1,1.3-0.7,1.6-1.3c0.3-0.6,0.3-1.4,0.3-2.1
			c0.1-2.4,0.2-4.7,3.7-4.6c-0.6-0.8-0.9-1.3-1.5-2.1C194.8,463.7,195.3,463.4,196,463z"/>
		<path class="st3" d="M169.2,493.6c-4,0-7.8,0-11.9,0c0,1.3,0,2.6,0,4c0,9.5-5.9,15.4-15.4,15.4c-4,0-8.1,0-12.1,0
			c-3.5,0-5.6-2-5.7-5.5c-0.1-2.6-0.1-5.2,0-7.7c0.2-7,5.3-11.9,12.3-11.9c5.7,0,11.4-0.1,17.1,0.1c1.1,0,2.2,0.9,3.2,1.3
			c0.5,0.2,1,0.5,1.4,0.5c3.6,0,7.2,0,10.7,0c0.5,0,1-0.3,1.5-0.5c1.4-0.5,2.8-1.3,4.2-1.4c8.3-0.1,16.6-0.1,24.9-0.1
			c2.1,0,2.6,0.6,2.7,2.7c0.3,6.7-1.4,12.5-6.4,17.2c-4.7,4.3-10.4,5.9-16.6,5.1c-5.8-0.7-9.9-5.6-10.1-11.6
			C169.2,498.7,169.2,496.2,169.2,493.6z"/>
		<path class="st3" d="M157.7,563.9c-6.4,0.1-10.1-3.5-10.1-9.8c0-4.7,0.6-9.3,4.3-12.8c4-3.9,9.9-4.9,15.1-2.4
			c5.2,2.5,7.9,7.1,7.2,12.6c-0.4,3.4-2.2,5.9-4.7,8C166.4,562.2,161.8,563.9,157.7,563.9z"/>
		<path class="st3" d="M196,463c-0.6,0.4-1.1,0.6-1.7,0.9c0.5,0.8,0.9,1.3,1.5,2.1c-3.5-0.1-3.6,2.2-3.7,4.6c0,0.7,0,1.5-0.3,2.1
			c-0.3,0.6-1,1.2-1.6,1.3c-0.4,0.1-1-0.6-1.5-0.9c-0.5-0.4-1-0.7-1.5-1.1c-0.7-0.5-1.4-1.1-2.2-1.6c0.1-0.2,0.2-0.4,0.3-0.6
			c0.6-0.1,1.3,0,1.9-0.3c0.7-0.3,1.8-0.8,1.9-1.4c0.1-0.6-0.7-1.5-1.1-2.2c-0.3-0.5-0.7-0.9-1.1-1.4c0.6-0.3,1.2-0.8,1.9-0.8
			c1.5-0.1,3,0.1,4.2-1.5C193.8,461.1,194.8,462.1,196,463z"/>
	</g>
	<path class="st4" d="M189.7,553.7c1.5-3.4,2.9-6.7,4.1-10c0.2-0.4,0.5-0.5,0.8-0.6c2.6-0.6,5.2-1.1,7.8-1.7
		c1.8-0.4,2.3-0.9,2.1-2.8c-0.4-2.7,0.7-4.3,3.1-5.5c2.5-1.2,5-2.5,7.7-3.1c0.4-0.1,0.8-0.1,1.2,0c3,0.4,3.9,1.9,2.7,4.7
		c-1.1,2.6-2.5,4.9-4.4,6.9c-1.7,1.8-1.8,4-1,6.2c0.4,1.2,0.9,2.3,1.3,3.4c0.5,1.5,0.2,2.8-0.8,3.9c-1.7,1.7-3.6,3.1-5.8,4
		c-1.5,0.7-2.3,0.4-3.3-0.9c-1.1-1.5-1.8-3.1-2.1-4.9c-0.3-1.3-0.9-1.7-2.2-1.5c-3.5,0.6-6.9,1.2-10.4,1.8
		C190.2,553.7,190,553.7,189.7,553.7z"/>
	<path class="st4" d="M119,571.5c-1.3,0-1.4-0.1-1.8-1.3c-0.6-1.8-0.8-3.7-1.2-5.6c-0.2-1.4-1.1-2.2-2.4-2.7c-2.1-0.7-4.2-1.4-6-2.8
		c-1-0.8-1.1-1-0.5-2.1c1.4-3.1,3.7-5.4,6.5-7.3c0.8-0.5,1.5-0.5,2.3,0.1c0.9,0.8,2,1.5,2.8,2.4c1,1,2.1,1.3,3.4,1.1
		c3.2-0.4,6.4-0.9,9.6-1.6c0.7-0.2,1,0,1.1,0.7c0.4,2.5,0.9,4.9,1.7,7.4c0.1,0.5,0.1,0.7-0.4,0.7c-1.6,0.2-3.2,0.6-4.8,0.8
		c-1.8,0.3-2.9,1.3-3.2,3.1c-0.2,1.3-0.6,2.6-1,3.9c-0.2,0.8-0.7,1.3-1.4,1.7C122.3,571,120.7,571.5,119,571.5z"/>
</g>
</svg>
